PathFileType	4	(X/Y/Z)	Patient4_TMGait_0pt3_01_left_19.trc.trc
DataRate	CameraRate	NumFrames	NumMarkers	Units	OrigDataRate	OrigDataStartFrame	OrigNumFrames
52.044609665428	52.044609665428	7	33	mm	52.044609665428	36	       141
Frame#	Time	Sacral			L.Shoulder			Chest			R.Shoulder			Neck			R.ASIS			L.ASIS			R.Thigh.Superior			R.Thigh.Lateral			R.Thigh.Inferior			R.Patella			L.Thigh.Superior			L.Thigh.Lateral			L.Thigh.Inferior			L.Patella			L.Shank.Superior			L.Shank.Lateral			L.Shank.Inferior			R.Shank.Superior			R.Shank.Lateral			R.Shank.Inferior			R.Heel			R.Midfoot.Superior			R.Midfoot.Lateral			R.Toe			L.Heel			L.Midfoot.Lateral			L.Midfoot.Superior			L.Toe			L.Elbow			L.Wrist			R.Elbow			R.Wrist			
		X1	Y1	Z1	X2	Y2	Z2	X3	Y3	Z3	X4	Y4	Z4	X5	Y5	Z5	X6	Y6	Z6	X7	Y7	Z7	X8	Y8	Z8	X9	Y9	Z9	X10	Y10	Z10	X11	Y11	Z11	X12	Y12	Z12	X13	Y13	Z13	X14	Y14	Z14	X15	Y15	Z15	X16	Y16	Z16	X17	Y17	Z17	X18	Y18	Z18	X19	Y19	Z19	X20	Y20	Z20	X21	Y21	Z21	X22	Y22	Z22	X23	Y23	Z23	X24	Y24	Z24	X25	Y25	Z25	X26	Y26	Z26	X27	Y27	Z27	X28	Y28	Z28	X29	Y29	Z29	X30	Y30	Z30	X31	Y31	Z31	X32	Y32	Z32	X33	Y33	Z33	

36	36.142500000000	736.727146449118	1001.711952335466	557.843313786731	881.808004099595	1416.668335940437	333.524514562074	1014.237073769880	1353.159036350267	474.583174178700	965.884647462707	1439.040582675205	655.128767260712	897.235053052400	1484.950942104842	485.810000077627	977.807071337130	931.327441052119	643.201232458610	928.576114388509	952.268896605204	372.694331372616	973.239357258477	717.709299229573	618.347161171818	872.907521776852	621.661674177437	684.349483180876	931.566829908837	556.270324318248	602.552104970604	910.663386388963	464.492542145279	611.354246995022	1007.739991257498	761.953806912293	409.356489273446	943.835931310294	633.004655394350	344.003432968492	1043.524002064579	570.330040859795	404.914228655524	1056.279993948540	497.968337266739	409.724176015424	1030.287022646422	422.802962343853	400.852418835745	944.798989579936	308.033579162244	344.689138382035	997.747819818716	194.842305860600	410.284826866227	856.147207664635	386.621462479346	619.849351073201	757.929492350055	307.609248336561	683.802226931223	771.731089954042	204.199028413847	622.674551394774	601.583179460665	63.689925901983	590.001714258506	775.404694862442	100.260816671141	635.554499735211	679.443725621842	47.070671905357	668.201513270987	886.674199777256	37.869653022131	670.694597363893	871.540657122774	38.335522554033	442.603048275726	947.490725140655	36.639957248710	363.906821741394	1030.614898671729	96.747164833231	393.758833825982	1158.937880314780	44.557382493932	366.618581793933	746.640295421137	1083.811875657861	263.702702651035	814.535738792745	831.132723198300	273.121849812347	1142.231911144574	1156.068325545779	772.480845388296	1387.171888581171	1206.349880024637	716.800746751750	
37	36.161714285714	737.242444437538	1003.078592660577	552.047410122911	883.926644160935	1418.229359649428	329.153414797492	1015.402854661918	1354.566956864370	471.054590673061	965.651200582794	1440.303764350259	651.284713655885	898.000313277581	1486.261272780331	481.579978066668	977.832304334871	932.398594249487	639.093229497640	930.326783967288	953.233584021943	368.303492830178	972.658109248462	718.695496488536	615.447538635791	871.771354492790	623.315432634969	681.692317879715	930.957551249045	557.108264588846	600.821807189342	909.887616634017	464.991426025832	610.525852349743	1007.912178348816	761.654967013409	405.655978520956	942.767834826976	632.940241152212	341.054447384986	1041.506422456954	569.557606198911	402.606516047594	1053.646529108930	497.240061301212	407.989742723639	1027.179358243256	422.216012270938	399.384455835837	941.248380375006	307.722649400398	343.561854171659	993.100059722613	194.572316428458	409.938265031738	854.374706634863	387.833405011118	619.142007267262	754.900242976052	310.316947246356	682.990883426617	768.312544986346	206.133422729752	622.848921461809	596.731386731958	67.520417428505	590.505095052793	771.188412610122	100.970621418348	636.215782295148	674.384174589425	49.029775352544	668.506224723199	881.255051638702	37.541951506972	670.699004322860	865.910539325837	38.354756107619	442.593661171674	941.870093928493	36.680561651810	363.926647513610	1025.072679380964	96.708242279700	393.807281882977	1153.397300996178	44.167704741373	366.642647507900	752.000714291864	1084.386931915891	256.373986483636	831.264733680143	834.928292542368	264.187626203560	1141.346155795936	1156.577407725725	768.573299705444	1388.872221710209	1199.998697182516	717.141173883970	
38	36.180928571429	737.685539614071	1004.391181427468	546.167092597862	886.096836673774	1419.833222270720	324.829120874947	1016.450609478628	1356.033465514657	467.713537227161	965.101582414814	1441.620086077597	647.562717124175	898.654096783925	1487.626483746167	477.396459866770	977.682814128367	933.571922221410	634.979064253960	932.053771459200	954.203381827799	363.898327665381	972.295650714767	719.812860473670	612.526566682967	871.061667414715	624.927542431778	679.005138946416	930.943793778084	557.999690447112	599.077283982068	909.842365446800	465.389279138442	609.798927593174	1007.909483910549	761.255361494307	401.700561131346	941.278360617397	632.855565863960	337.993188294024	1039.095329531125	568.726092620519	400.044439329182	1050.560677051253	496.494060805243	406.006784691064	1023.669731558068	421.638075939452	397.699640589659	937.288093742666	307.347995352912	342.334014632789	988.269042047544	194.313579700134	409.459589913604	853.187604343007	389.009299261178	618.476966936041	752.355343645205	313.148001425739	682.164399459281	765.265445055501	208.161034861856	623.049780504221	592.058277075760	71.729694751935	591.031158026023	767.136041476963	101.624161466483	636.824545174435	669.417726343152	51.215824989713	668.827274948898	875.806968779264	37.235800231201	670.674641195867	860.242832392297	38.349627048992	442.593430607462	936.201212594463	36.679924697846	363.935185906675	1019.473928522829	96.642779387033	393.808245853308	1147.799380757560	43.805405275856	366.645804895582	757.979717179398	1084.964317296843	248.517478635930	847.752395653499	838.998798545451	254.955487117377	1139.566029791777	1156.706009542987	764.973746253939	1389.669185693627	1192.370742585486	718.466620799488	
39	36.200142857143	738.060679075405	1005.612785305337	540.233265750715	888.270157307509	1421.440114325480	320.571974292859	1017.350221197889	1357.526357309091	464.559056733118	964.237515283227	1442.955900265337	643.966802712796	899.177076884431	1489.012324588894	473.278850973949	977.354769038316	934.810527564529	630.866434889251	933.746013647527	955.157326574677	359.499979994469	972.231014657146	721.032324245206	609.589127847897	870.892773146283	626.434978625882	676.281774146391	931.660855755531	558.910381933697	597.296516193534	910.668749904302	465.637063572689	609.144524140179	1007.757745624010	760.764934055986	397.535895351013	939.448367275081	632.757236876979	334.832751128578	1036.363689259734	567.851631525905	397.259468858736	1047.094419628393	495.741070507543	403.808047668535	1019.834645987210	421.068420024612	395.826334339813	932.997022659313	306.921625303784	341.002385628268	983.276214543072	194.059163956920	408.863072961383	852.718142771718	390.105182585371	617.825790506542	750.421634681656	316.096707136178	681.300056130303	762.668395790434	210.281884228919	623.247562727964	587.622827909503	76.407234600536	591.551782538983	763.281706735010	102.255662342182	637.376176263179	664.570934741112	53.717719935096	669.146328671280	870.308235077953	36.929823910426	670.628325272549	854.534124169997	38.323666796203	442.596628736718	930.482378016001	36.645000143874	363.928034260137	1013.814716680322	96.557438353999	393.766431430339	1142.144474052532	43.483492656065	366.630911572439	764.670121954512	1085.481336173238	240.160959322865	863.912850233107	843.127527005469	245.510415312770	1136.797863791516	1156.374774452131	761.706328497835	1389.319827208061	1183.371153112677	720.701611457461	
40	36.219357142857	738.363671045785	1006.709342415919	534.268402128290	890.406482446121	1423.014283797462	316.401188305186	1018.074004578049	1359.013200487705	461.592866222261	963.056072605341	1444.275935608263	640.503103897837	899.551718940594	1490.382449517999	469.250263207995	976.845501121243	936.076392082588	626.773502444853	935.398058505838	956.077382171513	355.136274679928	972.552607908103	722.331625019998	606.647078782353	871.390752896299	627.782079025248	673.519461142442	933.254714452850	559.814206200640	595.460894682195	912.517822300863	465.701459900799	608.528002990514	1007.485614012285	760.189268797826	393.233480790010	937.378721355022	632.647252879989	331.597314909313	1033.396564847574	566.946352472328	394.314604637137	1043.337982915510	494.985580951086	401.452890908554	1015.762219663289	420.503338345653	393.813541644729	928.469170225887	306.455722449550	339.577607092736	978.150487542175	193.801701500741	408.174290875331	853.114503898838	391.089219320788	617.156768179153	749.242021850843	319.172477263512	680.370978059475	760.612731791170	212.515829038962	623.407447686859	583.505463095520	81.683146005737	592.024196281483	759.668995876057	102.927209463351	637.861254844760	659.883629242871	56.661833446732	669.435362623395	864.741674556049	36.596710081741	670.571836070115	848.786943903992	38.281505444241	442.597455104726	924.718762195851	36.584503255182	363.903015371156	1008.098395383904	96.460277861163	393.689522211036	1136.439738261421	43.209741120169	366.602393227277	772.150424061568	1085.897390836257	231.369093544685	879.711272386067	847.118769234425	235.957578092482	1132.954192419367	1155.521595289016	758.790404045043	1387.584610996390	1172.910296131827	723.743610673291	
41	36.238571428571	738.582442966190	1007.647826402569	528.289264218742	892.476598556243	1424.522880767770	312.335608252560	1018.598191261637	1360.459301048388	458.820929272260	961.549683051547	1445.540854398442	637.180648957817	899.764857077210	1491.696978173685	465.337084987390	976.153968829852	937.330501900654	622.726927686559	937.006168434804	956.947286225479	350.840011600950	973.349457665752	723.696640579434	603.711330963857	872.686562896602	628.924225031076	670.717544083739	935.869059299956	560.695935426445	593.552184091970	915.539213457413	465.568334465712	607.908319839875	1007.124530087106	759.531987353169	388.881261977109	935.180954617932	632.521792498619	328.320444492134	1030.289633965197	566.018456011045	391.290404881009	1039.398433334163	494.225506121248	399.014750643378	1011.549757812507	419.934775491167	391.721712451044	923.806195645317	305.961233383621	338.080419066888	972.926765668122	193.533000484948	407.425065081467	854.528757044141	391.943784055701	616.433874604039	748.965378458621	322.398602654620	679.344412833183	759.197075267852	214.902399601643	623.488233384109	579.807736325394	87.715518756868	592.386697767926	756.350048350992	103.729954728066	638.261781547862	655.410476609068	60.204873545689	669.653475401194	859.100056385652	36.209954901175	670.521242903468	843.007668961905	38.228892817343	442.590646963928	918.919837274193	36.507595857378	363.860030369319	1002.333760451700	96.358812532610	393.586671451161	1130.696428344304	42.984844569566	366.565359430073	780.480347313901	1086.194505784252	222.242530077993	895.162719703394	850.814565004741	226.420757271866	1127.957154720563	1154.102060457295	756.236785699538	1384.233578506275	1160.915154854013	727.467076768244	
42	36.257785714286	738.698908423171	1008.394729509036	522.309781883963	894.462523328153	1425.933839762676	308.394889158087	1018.903970651662	1361.825975796430	456.254097395652	959.707757319542	1446.704975946292	634.011875779367	899.808943189956	1492.912020682163	461.567124826380	975.281367688226	938.532414677375	618.758735030072	938.566025605024	957.750528559590	346.646652056181	974.699895522091	725.121496665655	600.784908240227	874.903649012874	629.831337813729	667.876117575736	939.627587424523	561.553367769421	591.550180970465	919.864325962900	465.245132944787	607.238543716153	1006.709663190750	758.796694195497	384.572178041763	932.969950107517	632.370472080114	325.041889137676	1027.148614854211	565.072312718721	388.270603306942	1035.398678171649	493.452430647296	396.568215466253	1007.302443628242	419.349194158238	389.613300087499	919.111450577738	305.446830533425	336.537161363034	967.644916817334	193.243727174260	406.648237277676	857.099417587482	392.666734101255	615.616882973220	749.731461162365	325.808486809921	678.180258564957	758.518969324210	217.497108691545	623.441399368101	576.649149681093	94.667639105920	592.555418733205	753.384658530397	104.781633525511	638.549136415877	651.221783318933	64.518476788870	669.743967348840	853.393161187769	35.752810228370	670.495079770070	837.204575044381	38.172345267806	442.571873415540	913.097009511891	36.422818779861	363.800676730052	996.533017029379	96.258873579016	393.467113753224	1124.927351915396	42.802756658265	366.524813999812	789.695725048981	1086.373753924516	212.913377945416	910.323845544975	854.104510375947	217.038224162877	1121.742826059251	1152.088275699261	754.044509830415	1379.052357131815	1147.339750425203	731.728198889776	
